<?xml version="1.0" encoding="iso-8859-1"?>
<!-- Generator: Adobe Illustrator 19.0.0, SVG Export Plug-In . SVG Version: 6.00 Build 0)  -->
<svg version="1.1" id="Capa_1" xmlns="http://www.w3.org/2000/svg" xmlns:xlink="http://www.w3.org/1999/xlink" x="0px" y="0px"
	 viewBox="0 0 512 512" style="enable-background:new 0 0 512 512;" xml:space="preserve">
<linearGradient id="SVGID_1_" gradientUnits="userSpaceOnUse" x1="256.3383" y1="513.3973" x2="256.3383" y2="1.7243" gradientTransform="matrix(0.9989 0 0 -0.9989 -0.0543 513.2755)">
	<stop  offset="0" style="stop-color:#2AF598"/>
	<stop  offset="1" style="stop-color:#009EFD"/>
</linearGradient>
<path style="fill:url(#SVGID_1_);" d="M409.584,157.802l-28.253,28.254l53.575,53.575h-59.649
	c-39.095,0-74.487,16.132-99.889,42.081V76.32l54.797,54.798l28.253-28.254L256,0.447L153.583,102.863l28.253,28.254l53.576-53.576
	v204.171c-25.402-25.949-60.795-42.081-99.889-42.081H77.483l53.187-53.186l-28.253-28.254L0,260.607l102.416,102.417l28.253-28.254
	l-55.185-55.185h60.037c55.079,0,99.889,44.809,99.889,99.889v132.077h39.956V379.476c0-55.08,44.81-99.889,99.889-99.889h60.872
	l-54.798,54.796l28.253,28.254L512,260.22L409.584,157.802z"/>
<g>
</g>
<g>
</g>
<g>
</g>
<g>
</g>
<g>
</g>
<g>
</g>
<g>
</g>
<g>
</g>
<g>
</g>
<g>
</g>
<g>
</g>
<g>
</g>
<g>
</g>
<g>
</g>
<g>
</g>
</svg>
