<svg height="512pt" viewBox="0 0 512 512" width="512pt" xmlns="http://www.w3.org/2000/svg" xmlns:xlink="http://www.w3.org/1999/xlink"><linearGradient id="a" gradientUnits="userSpaceOnUse" x1="0" x2="512" y1="256" y2="256"><stop offset="0" stop-color="#00f38d"/><stop offset="1" stop-color="#009eff"/></linearGradient><path d="m512 256c0 141.386719-114.613281 256-256 256s-256-114.613281-256-256 114.613281-256 256-256 256 114.613281 256 256zm0 0" fill="url(#a)"/><path d="m353.617188 189.730469-21.210938 21.214843 29.097656 29.097657h-31.097656c-22.941406 0-43.898438 8.65625-59.789062 22.863281v-116.101562l29.863281 29.859374 21.214843-21.210937-65.695312-65.691406-65.695312 65.691406 21.214843 21.210937 29.097657-29.097656v115.339844c-15.886719-14.207031-36.84375-22.863281-59.789063-22.863281h-30.089844l28.855469-28.855469-21.210938-21.214844-65.695312 65.695313 65.695312 65.691406 21.210938-21.210937-30.101562-30.105469h31.339843c32.96875 0 59.789063 26.820312 59.789063 59.789062v82.40625h30v-82.40625c0-32.96875 26.820312-59.789062 59.789062-59.789062h31.859375l-29.863281 29.863281 21.214844 21.210938 65.691406-65.691407zm0 0" fill="#fff"/></svg>