<?xml version="1.0"?>
<svg xmlns="http://www.w3.org/2000/svg" id="Capa_1" enable-background="new 0 0 512 512" height="512px" viewBox="0 0 512 512" width="512px" class=""><g><g><path d="m512 256c0 141.38-114.62 256-256 256s-256-114.62-256-256c0-46.22 12.25-89.57 33.68-127 44.12-77.07 127.16-129 222.32-129s178.2 51.93 222.32 129c21.43 37.43 33.68 80.78 33.68 127z" fill="#22d7ff" data-original="#22D7FF" class="active-path" style="fill:#1ABD99" data-old_color="#22d7ff"/><path d="m512 256c0 141.38-114.62 256-256 256-59.44 0-114.15-20.26-157.6-54.25-7.24-5.66-14.16-11.7-20.74-18.08-6.57-6.39-12.8-13.12-18.65-20.17-36.85-44.35-59.01-101.34-59.01-163.5 0-46.22 12.25-89.57 33.68-127 38.88 67.92 107.99 116.32 188.99 126.84 10.91 1.43 22.03 2.16 33.33 2.16 1.12 0 2.23-.01 3.35-.02 3.51-.05 7.01-.16 10.49-.35 89.33-4.76 166.51-55.32 208.48-128.63 21.43 37.43 33.68 80.78 33.68 127z" fill="#00b3ff" data-original="#00B3FF" class="" style="fill:#2AB7C4" data-old_color="#00b3ff"/><g><path d="m284.18 271.97-185.78 185.78c-14.46-11.31-27.67-24.14-39.39-38.25l163.66-163.66 22.69-22.69 24.48 24.48z" fill="#303c5a" data-original="#303C5A" class="" style="fill:#303C5A"/><path d="m284.18 271.97-185.78 185.78c-7.24-5.66-14.16-11.7-20.74-18.08l187.11-187.11z" fill="#22273b" data-original="#22273B" style="fill:#22273B"/><path d="m393.634 393.191c-74.421 74.421-195.081 74.424-269.502.003s-74.421-195.083 0-269.504 195.083-74.421 269.504 0 74.419 195.08-.002 269.501z" fill="#464f6e" data-original="#464F6E" class="" style="fill:#464F6E"/><path d="m393.634 393.191c-74.421 74.421-195.081 74.424-269.502.003l269.505-269.504c74.421 74.421 74.418 195.08-.003 269.501z" fill="#303c5a" data-original="#303C5A" class="" style="fill:#303C5A"/><ellipse cx="258.885" cy="258.442" fill="#fff" rx="153.246" ry="153.246" transform="matrix(.707 -.707 .707 .707 -106.921 258.755)" data-original="#FFF" class="" style="fill:#FFF"/><path d="m367.246 366.803c-59.845 59.845-156.878 59.845-216.723 0l216.723-216.723c59.845 59.845 59.847 156.876 0 216.723z" fill="#b0edf7" data-original="#B0EDF7" class="" style="fill:#B0EDF7"/><g><g><path d="m244.971 258.158c-2.929 2.929-7.655 2.914-10.569 0l-23.735-23.735v33.58c0 4.107-3.352 7.458-7.474 7.474-2.069-.015-3.926-.846-5.285-2.204-1.344-1.344-2.189-3.216-2.189-5.27v-33.58l-23.735 23.735c-2.809 2.809-7.323 2.914-10.252.287-.121-.091-.211-.181-.317-.287-2.914-2.914-2.914-7.655 0-10.569l23.735-23.735-33.564.015c-2.069-.015-3.926-.845-5.285-2.204-1.344-1.344-2.189-3.216-2.189-5.27 0-4.137 3.352-7.489 7.474-7.474l33.565-.015-23.72-23.72c-2.929-2.929-2.929-7.64 0-10.569 2.914-2.914 7.64-2.929 10.569 0l23.72 23.72v-33.55c0-4.137 3.337-7.474 7.474-7.474s7.474 3.337 7.474 7.474v33.549l23.72-23.72c2.929-2.929 7.655-2.914 10.569 0 .106.106.196.196.287.317 2.627 2.929 2.537 7.429-.287 10.252l-23.72 23.72 33.565.015c4.122-.015 7.474 3.337 7.474 7.474-.015 4.122-3.352 7.459-7.474 7.474l-33.565-.015 23.735 23.735c2.913 2.915 2.913 7.656-.001 10.57z" fill="#029291" data-original="#029291" class="" style="fill:#2AB7C4" data-old_color="#029291"/><path d="m244.971 258.158c-2.929 2.929-7.655 2.914-10.569 0l-23.735-23.735v33.58c0 4.107-3.352 7.458-7.474 7.474-2.069-.015-3.926-.846-5.285-2.204-1.344-1.344-2.189-3.216-2.189-5.27v-33.58l-23.735 23.735c-2.809 2.809-7.323 2.914-10.252.287l83.511-83.511c2.627 2.929 2.537 7.429-.287 10.252l-23.72 23.72 33.565.015c4.122-.015 7.474 3.337 7.474 7.474-.015 4.122-3.352 7.459-7.474 7.474l-33.565-.015 23.735 23.735c2.914 2.914 2.914 7.655 0 10.569z" fill="#007f7c" data-original="#007F7C" class="" style="fill:#007F7C" data-old_color="#007f7c"/><path d="m228.906 242.093c-13.981 13.981-36.66 13.981-50.641 0l-.091-.091c-13.891-13.981-13.861-36.599.091-50.551 13.951-13.951 36.554-13.966 50.535-.076l.091.091c13.981 13.982 13.996 36.646.015 50.627z" fill="#00cc7f" data-original="#00CC7F" class="" style="fill:#00CC7F"/><path d="m228.906 242.093c-13.981 13.981-36.66 13.981-50.641 0l-.091-.091 50.626-50.626.091.091c13.981 13.981 13.996 36.645.015 50.626z" fill="#029291" data-original="#029291" class="" style="fill:#2AB7C4" data-old_color="#029291"/><path d="m216.283 229.47c-7.021 7.021-18.39 7.006-25.396 0l-.091-.091c-6.915-7.006-6.9-18.314.091-25.305 6.976-6.976 18.3-7.006 25.305-.091l.091.091c7.006 7.006 7.006 18.39 0 25.396z" fill="#81f700" data-original="#81F700" class="" style="fill:#81F700"/><path d="m216.283 229.47c-7.021 7.021-18.39 7.006-25.396 0l-.091-.091 25.396-25.396.091.091c7.006 7.006 7.006 18.39 0 25.396z" fill="#00cc7f" data-original="#00CC7F" class="" style="fill:#00CC7F"/></g><g><path d="m377.78 299.703c-2.929 2.929-7.655 2.914-10.569 0l-23.735-23.735v33.58c0 4.107-3.352 7.458-7.474 7.474-2.069-.015-3.926-.846-5.284-2.204-1.344-1.344-2.189-3.216-2.189-5.27v-33.579l-23.735 23.735c-2.808 2.809-7.323 2.914-10.252.287-.121-.091-.211-.181-.317-.287-2.914-2.914-2.914-7.655 0-10.569l23.735-23.735-33.564.015c-2.069-.015-3.926-.846-5.285-2.204-1.344-1.344-2.189-3.216-2.189-5.27 0-4.137 3.352-7.489 7.474-7.474l33.565-.015-23.72-23.72c-2.929-2.929-2.929-7.64 0-10.569 2.914-2.914 7.64-2.929 10.569 0l23.72 23.72v-33.55c0-4.137 3.337-7.473 7.474-7.474 4.137 0 7.474 3.337 7.474 7.474v33.549l23.72-23.72c2.929-2.929 7.655-2.914 10.569 0 .106.106.196.196.287.317 2.627 2.929 2.537 7.429-.287 10.252l-23.72 23.72 33.565.015c4.122-.015 7.474 3.337 7.474 7.474-.016 4.122-3.352 7.459-7.474 7.474l-33.565-.015 23.735 23.735c2.912 2.914 2.912 7.655-.002 10.569z" fill="#029291" data-original="#029291" class="" style="fill:#2AB7C4" data-old_color="#029291"/><path d="m377.78 299.703c-2.929 2.929-7.655 2.914-10.569 0l-23.735-23.735v33.58c0 4.107-3.352 7.458-7.474 7.474-2.069-.015-3.926-.846-5.284-2.204-1.344-1.344-2.189-3.216-2.189-5.27v-33.579l-23.735 23.735c-2.808 2.809-7.323 2.914-10.252.287l83.511-83.511c2.627 2.929 2.537 7.429-.287 10.252l-23.72 23.72 33.565.015c4.122-.015 7.474 3.337 7.474 7.474-.016 4.122-3.352 7.459-7.474 7.474l-33.565-.015 23.735 23.735c2.913 2.913 2.913 7.654-.001 10.568z" fill="#007f7c" data-original="#007F7C" class="" style="fill:#007F7C" data-old_color="#007f7c"/><path d="m361.715 283.638c-13.981 13.982-36.66 13.982-50.641 0l-.091-.091c-13.891-13.981-13.861-36.599.091-50.55 13.951-13.951 36.554-13.966 50.535-.076l.091.091c13.981 13.981 13.996 36.644.015 50.626z" fill="#00cc7f" data-original="#00CC7F" class="" style="fill:#00CC7F"/><path d="m361.715 283.638c-13.981 13.982-36.66 13.982-50.641 0l-.091-.091 50.626-50.626.091.091c13.981 13.981 13.996 36.644.015 50.626z" fill="#029291" data-original="#029291" class="" style="fill:#2AB7C4" data-old_color="#029291"/><path d="m349.092 271.015c-7.021 7.021-18.39 7.006-25.396 0l-.091-.091c-6.915-7.006-6.9-18.315.091-25.305 6.976-6.976 18.3-7.006 25.305-.091l.091.091c7.006 7.006 7.006 18.39 0 25.396z" fill="#81f700" data-original="#81F700" class="" style="fill:#81F700"/><path d="m349.092 271.015c-7.021 7.021-18.39 7.006-25.396 0l-.091-.091 25.396-25.396.091.091c7.006 7.006 7.006 18.39 0 25.396z" fill="#00cc7f" data-original="#00CC7F" class="" style="fill:#00CC7F"/></g><g><path d="m318.6 380.002c-2.512 2.512-6.565 2.499-9.064 0l-20.356-20.356v28.799c0 3.522-2.875 6.397-6.41 6.41-1.774-.013-3.367-.725-4.532-1.891-1.153-1.153-1.878-2.758-1.878-4.519v-28.799l-20.356 20.356c-2.409 2.409-6.28 2.499-8.792.246-.104-.078-.181-.155-.272-.246-2.499-2.499-2.499-6.565 0-9.064l20.356-20.356-28.786.013c-1.774-.013-3.367-.725-4.532-1.891-1.152-1.152-1.878-2.758-1.878-4.519 0-3.548 2.875-6.423 6.41-6.41l28.786-.013-20.343-20.343c-2.512-2.512-2.512-6.552 0-9.064 2.499-2.499 6.552-2.512 9.064 0l20.343 20.343v-28.773c0-3.548 2.862-6.409 6.41-6.41 3.548 0 6.41 2.862 6.41 6.41v28.773l20.343-20.343c2.512-2.512 6.565-2.499 9.064 0 .091.091.168.168.246.272 2.253 2.512 2.176 6.371-.246 8.793l-20.343 20.343 28.786.013c3.535-.013 6.41 2.862 6.41 6.41-.013 3.535-2.875 6.397-6.41 6.41l-28.786-.013 20.356 20.356c2.5 2.498 2.5 6.564 0 9.063z" fill="#029291" data-original="#029291" class="" style="fill:#2AB7C4" data-old_color="#029291"/><path d="m318.6 380.002c-2.512 2.512-6.565 2.499-9.064 0l-20.356-20.356v28.799c0 3.522-2.875 6.397-6.41 6.41-1.774-.013-3.367-.725-4.532-1.891-1.153-1.153-1.878-2.758-1.878-4.519v-28.799l-20.356 20.356c-2.409 2.409-6.28 2.499-8.792.246l71.621-71.622c2.253 2.512 2.176 6.371-.246 8.793l-20.343 20.343 28.786.013c3.535-.013 6.41 2.862 6.41 6.41-.013 3.535-2.875 6.397-6.41 6.41l-28.786-.013 20.356 20.356c2.5 2.499 2.5 6.565 0 9.064z" fill="#007f7c" data-original="#007F7C" class="" style="fill:#007F7C" data-old_color="#007f7c"/><path d="m304.823 366.224c-11.991 11.991-31.44 11.991-43.431 0l-.078-.078c-11.913-11.991-11.887-31.389.078-43.354s31.35-11.978 43.341-.065l.078.078c11.99 11.992 12.003 31.428.012 43.419z" fill="#00cc7f" data-original="#00CC7F" class="" style="fill:#00CC7F"/><path d="m304.823 366.224c-11.991 11.991-31.44 11.991-43.431 0l-.078-.078 43.418-43.418.078.078c11.991 11.991 12.004 31.427.013 43.418z" fill="#029291" data-original="#029291" class="" style="fill:#2AB7C4" data-old_color="#029291"/><path d="m293.997 355.398c-6.021 6.021-15.772 6.008-21.78 0l-.078-.078c-5.931-6.008-5.918-15.707.078-21.703 5.983-5.983 15.694-6.008 21.703-.078l.078.078c6.008 6.009 6.007 15.773-.001 21.781z" fill="#81f700" data-original="#81F700" class="" style="fill:#81F700"/><path d="m293.997 355.398c-6.021 6.021-15.772 6.008-21.78 0l-.078-.078 21.78-21.78.078.078c6.009 6.008 6.008 15.772 0 21.78z" fill="#00cc7f" data-original="#00CC7F" class="" style="fill:#00CC7F"/></g><g><path d="m219.554 344.818c-1.914 1.914-5.002 1.904-6.907 0l-15.51-15.51v21.943c0 2.684-2.19 4.874-4.884 4.884-1.352-.01-2.565-.553-3.453-1.44-.878-.878-1.431-2.102-1.431-3.444v-21.943l-15.51 15.51c-1.835 1.835-4.785 1.904-6.699.187-.079-.059-.138-.118-.207-.187-1.904-1.904-1.904-5.002 0-6.907l15.51-15.51-21.933.01c-1.352-.01-2.565-.552-3.453-1.44-.878-.878-1.431-2.102-1.431-3.444 0-2.703 2.19-4.894 4.884-4.884l21.933-.01-15.5-15.5c-1.914-1.914-1.914-4.993 0-6.907 1.904-1.904 4.992-1.914 6.907 0l15.5 15.5v-21.924c0-2.703 2.181-4.884 4.884-4.884 2.704 0 4.884 2.181 4.884 4.884v21.924l15.5-15.5c1.914-1.914 5.003-1.904 6.907 0 .069.069.128.128.187.207 1.717 1.914 1.658 4.854-.187 6.7l-15.5 15.5 21.934.01c2.693-.01 4.884 2.18 4.884 4.884-.01 2.693-2.191 4.874-4.884 4.884l-21.934-.01 15.51 15.51c1.903 1.905 1.903 5.003-.001 6.907z" fill="#029291" data-original="#029291" class="" style="fill:#2AB7C4" data-old_color="#029291"/><path d="m219.554 344.818c-1.914 1.914-5.002 1.904-6.907 0l-15.51-15.51v21.943c0 2.684-2.19 4.874-4.884 4.884-1.352-.01-2.565-.553-3.453-1.44-.878-.878-1.431-2.102-1.431-3.444v-21.943l-15.51 15.51c-1.835 1.835-4.785 1.904-6.699.187l54.572-54.572c1.717 1.914 1.658 4.854-.187 6.7l-15.5 15.5 21.934.01c2.693-.01 4.884 2.18 4.884 4.884-.01 2.693-2.191 4.874-4.884 4.884l-21.934-.01 15.51 15.51c1.903 1.905 1.903 5.003-.001 6.907z" fill="#007f7c" data-original="#007F7C" class="" style="fill:#007F7C" data-old_color="#007f7c"/><path d="m209.056 334.32c-9.137 9.136-23.956 9.136-33.092 0l-.059-.059c-9.077-9.136-9.057-23.917.059-33.033s23.887-9.127 33.023-.049l.059.059c9.136 9.136 9.146 23.946.01 33.082z" fill="#00cc7f" data-original="#00CC7F" class="" style="fill:#00CC7F"/><path d="m209.056 334.32c-9.137 9.136-23.956 9.136-33.092 0l-.059-.059 33.083-33.083.059.059c9.135 9.137 9.145 23.947.009 33.083z" fill="#029291" data-original="#029291" class="" style="fill:#2AB7C4" data-old_color="#029291"/><path d="m200.807 326.072c-4.588 4.588-12.017 4.578-16.595 0l-.059-.059c-4.519-4.578-4.509-11.968.059-16.536 4.558-4.558 11.958-4.578 16.536-.059l.059.059c4.579 4.577 4.578 12.016 0 16.595z" fill="#81f700" data-original="#81F700" class="" style="fill:#81F700"/><path d="m200.807 326.072c-4.588 4.588-12.017 4.578-16.595 0l-.059-.059 16.596-16.595.059.059c4.578 4.577 4.577 12.016-.001 16.595z" fill="#00cc7f" data-original="#00CC7F" class="" style="fill:#00CC7F"/></g><g><path d="m322.642 199.029c-2.118 2.118-5.535 2.107-7.642 0l-17.161-17.161v24.279c0 2.969-2.424 5.393-5.404 5.404-1.496-.011-2.839-.611-3.821-1.594-.972-.972-1.583-2.325-1.583-3.81v-24.279l-17.161 17.161c-2.031 2.031-5.295 2.107-7.413.207-.087-.065-.153-.131-.229-.207-2.107-2.107-2.107-5.535 0-7.642l17.161-17.161-24.268.011c-1.496-.011-2.838-.611-3.821-1.594-.972-.972-1.583-2.325-1.583-3.81 0-2.991 2.424-5.414 5.404-5.404l24.268-.011-17.15-17.15c-2.118-2.118-2.118-5.524 0-7.642 2.107-2.107 5.524-2.118 7.642 0l17.15 17.15v-24.257c0-2.991 2.412-5.404 5.404-5.404 2.991 0 5.404 2.413 5.404 5.404v24.257l17.15-17.15c2.118-2.118 5.535-2.107 7.642 0 .077.076.142.142.207.229 1.9 2.118 1.834 5.371-.207 7.412l-17.15 17.15 24.268.011c2.98-.011 5.404 2.413 5.404 5.404-.011 2.98-2.424 5.393-5.404 5.404l-24.268-.011 17.161 17.161c2.107 2.108 2.107 5.536 0 7.643z" fill="#029291" data-original="#029291" class="" style="fill:#2AB7C4" data-old_color="#029291"/><path d="m322.642 199.029c-2.118 2.118-5.535 2.107-7.642 0l-17.161-17.161v24.279c0 2.969-2.424 5.393-5.404 5.404-1.496-.011-2.839-.611-3.821-1.594-.972-.972-1.583-2.325-1.583-3.81v-24.279l-17.161 17.161c-2.031 2.031-5.295 2.107-7.413.207l60.38-60.38c1.9 2.118 1.834 5.371-.207 7.412l-17.15 17.15 24.268.011c2.98-.011 5.404 2.413 5.404 5.404-.011 2.98-2.424 5.393-5.404 5.404l-24.268-.011 17.161 17.161c2.108 2.107 2.108 5.535.001 7.642z" fill="#007f7c" data-original="#007F7C" class="" style="fill:#007F7C" data-old_color="#007f7c"/><path d="m311.026 187.413c-10.109 10.109-26.506 10.109-36.615 0l-.066-.066c-10.043-10.109-10.021-26.462.066-36.549s26.43-10.098 36.538-.055l.066.066c10.109 10.109 10.12 26.495.011 36.604z" fill="#00cc7f" data-original="#00CC7F" class="" style="fill:#00CC7F"/><path d="m311.026 187.413c-10.109 10.109-26.506 10.109-36.615 0l-.066-.066 36.604-36.604.066.066c10.109 10.109 10.12 26.495.011 36.604z" fill="#029291" data-original="#029291" class="" style="fill:#2AB7C4" data-old_color="#029291"/><path d="m301.9 178.287c-5.076 5.076-13.296 5.065-18.362 0l-.066-.065c-5-5.065-4.989-13.242.066-18.296 5.044-5.044 13.231-5.065 18.296-.066l.066.066c5.065 5.064 5.065 13.295 0 18.361z" fill="#81f700" data-original="#81F700" class="" style="fill:#81F700"/><path d="m301.9 178.287c-5.076 5.076-13.296 5.065-18.362 0l-.066-.065 18.362-18.362.066.066c5.065 5.064 5.065 13.295 0 18.361z" fill="#00cc7f" data-original="#00CC7F" class="" style="fill:#00CC7F"/></g></g></g><path d="m437.019 437.019c-99.971 99.971-262.068 99.971-362.039 0s-99.971-262.068 0-362.039c32.682-32.683 71.998-54.674 113.618-65.987 85.694-23.299 181.132-1.301 248.421 65.987 67.288 67.288 89.286 162.726 65.987 248.421-11.313 41.621-33.304 80.936-65.987 113.618z" fill="none" style="fill:null"/></g></g> </svg>
