<?xml version="1.0"?>
<svg xmlns="http://www.w3.org/2000/svg" height="512px" viewBox="0 0 512 512" width="512px" class=""><g><g id="Filled_outline" data-name="Filled outline"><path d="m488 248.87a55.831 55.831 0 0 1 -16.36 39.49l-31.64 31.64v40h-40v-56l48-48-16.8-9.6-39.2-22.4v-72h16l53.03 47.73 8.48 7.63a55.841 55.841 0 0 1 18.49 41.51z" fill="#fec9a3" data-original="#FEC9A3" class=""/><path d="m461.03 199.73c-9.46 15.53-20.79 33.64-29.83 46.67l-39.2-22.4v-72h16z" fill="#f36100" data-original="#F36100" class="" style="fill:#2AB7C4" data-old_color="#f36100"/><path d="m408 152-32-112h-64l-8 40-8 16 16 8v16a8 8 0 0 0 8 8h24l8 24z" fill="#fec9a3" data-original="#FEC9A3" class=""/><path d="m384 328a156.706 156.706 0 0 1 -19.71 22.35 126.009 126.009 0 0 1 -32.07 21.8c-13.78 6.54-29.06 10.83-46.29 13.29l-25.47 3.64-20.46 2.92-48 80-32-24 32.54-84.6a40 40 0 0 1 27.63-24.44l16.99-4.25 31.58-7.9 27.26-6.81-23.72-10.78-43.06-19.57-21.22-9.65-56 64-32-16 43.48-72.47a59.851 59.851 0 0 1 78.09-22.74l7.04 3.52 29.48 14.74 24.23 12.11 17.68 8.84z" fill="#fec9a3" data-original="#FEC9A3" class=""/><path d="m400.47 296.7a213.334 213.334 0 0 1 -16.47 31.3l-64-56v-56l-50.72-21.13-45.28-18.87-40-112-24-8-8-32h34.9a32 32 0 0 1 29.41 19.39l39.69 92.61 26.35 6.59 37.65 9.41h88s24.83 68.28-7.53 144.7z" fill="#fec9a3" data-original="#FEC9A3" class=""/><path d="m392 96-32-40h-48a16 16 0 0 1 -16-16 16 16 0 0 1 16-16h48a32 32 0 0 1 32 32z" fill="#ffb531" data-original="#FFB531" class=""/><path d="m112 464v24h72l8-16-32-24z" fill="#bfbfbd" data-original="#BFBFBD" class="" style="fill:#000000" data-old_color="#bfbfbd"/><path d="m120 328-48 16v24h64l16-24z" fill="#bfbfbd" data-original="#BFBFBD" class="" style="fill:#000000" data-old_color="#bfbfbd"/><path d="m384 328a156.706 156.706 0 0 1 -19.71 22.35 126.009 126.009 0 0 1 -32.07 21.8c-13.78 6.54-29.06 10.83-46.29 13.29l-25.47 3.64-7.74-18.05-15.56-36.32 31.58-7.9 27.26-6.81-23.72-10.78-43.06-19.57 19.39-53.34 29.48 14.74 24.23 12.11 17.68 8.84 51.98 45.48z" fill="#34507b" data-original="#34507B" class="" style="fill:#000000" data-old_color="#34507b"/><path d="m384 328a156.706 156.706 0 0 1 -19.71 22.35 126.009 126.009 0 0 1 -32.07 21.8c-13.78 6.54-29.06 10.83-46.29 13.29l-25.47 3.64-7.74-18.05c43.27-12.71 83.23-30.08 119.26-53.55z" fill="#2f486e" data-original="#2F486E" class="" style="fill:#1ABD99" data-old_color="#2f486e"/><path d="m72 368 24 16v48l16 16v40h-88v-464h128l8 32v32l6.95 20.84 9.05 27.16-32 40 8 32-80 88z" fill="#92563a" data-original="#92563A" class="active-path" style="fill:#2AB7C4" data-old_color="#92563a"/><path d="m72 368 24 16v48l16 16v40h-88v-203.86c53.94-42.05 103.56-99.22 142.95-175.3l9.05 27.16-32 40 8 32-80 88z" fill="#875036" data-original="#875036" class="" style="fill:#1ABD99" data-old_color="#875036"/><path d="m417.09 211.7a210.515 210.515 0 0 1 -33.09 116.3l-49.92-43.68-14.08-12.32v-56l-50.72-21.13 13.07-52.28 37.65 9.41h88s8.76 24.1 9.09 59.7z" fill="#fa6d00" data-original="#FA6D00" class="" style="fill:#1ABD99" data-old_color="#fa6d00"/><path d="m417.09 211.7a210.515 210.515 0 0 1 -33.09 116.3l-49.92-43.68a459.675 459.675 0 0 0 83.01-72.62z" fill="#f86400" data-original="#F86400" class="" style="fill:#2AB7C4" data-old_color="#f86400"/><g fill="#353f52"><path d="m364.29 350.35a126.009 126.009 0 0 1 -32.07 21.8l-63.48-45.34 27.26-6.81z" data-original="#353F52" class=""/><path d="m302.32 263.16-6.32 56.84-23.72-10.78 5.81-58.17z" data-original="#353F52" class=""/><path d="m400.47 296.7a213.334 213.334 0 0 1 -16.47 31.3l-64-56v-24l80 48z" data-original="#353F52" class=""/><path d="m440 344v48a16 16 0 0 1 -16 16h-24a15.986 15.986 0 0 1 -15.99-15.61c-.01-.13-.01-.26-.01-.39v-64z" data-original="#353F52" class=""/></g><path d="m440 348.96v43.04a16 16 0 0 1 -16 16h-24a15.986 15.986 0 0 1 -15.99-15.61 462.763 462.763 0 0 0 55.99-43.43z" fill="#253555" data-original="#253555" class="" style="fill:#000000" data-old_color="#253555"/><path d="m474.861 201.413-59.8-53.821-15.061-52.713v-38.879a40.045 40.045 0 0 0 -40-40h-56a24 24 0 0 0 -4.86 47.505l-2.775 13.875-7.52 15.042a8 8 0 0 0 3.577 10.733l11.578 5.789v11.056a16.019 16.019 0 0 0 16 16h24v-16h-24v-16a8 8 0 0 0 -4.422-7.155l-8.845-4.423 4.422-8.844a7.989 7.989 0 0 0 .69-2.009l3.513-17.569h40.8l28.594 35.743 12.642 44.257h-76.41l-59.194-14.8-38.127-88.961a39.95 39.95 0 0 0 -36.763-24.239h-162.9a8 8 0 0 0 -8 8v464a8 8 0 0 0 8 8h160a8 8 0 0 0 7.155-4.422l7.863-15.726 45.882-76.47 16.69-2.382 25.469-3.64c18.409-2.629 34.3-7.2 48.585-13.981a133.3 133.3 0 0 0 34.086-23.165c2.118-1.966 4.206-4.04 6.268-6.195v41.981a24.027 24.027 0 0 0 24 24h24a24.027 24.027 0 0 0 24-24v-68.686l29.3-29.3a63.841 63.841 0 0 0 -2.436-92.6zm-92.767 114.287-54.094-47.33v-6.241l62.432 37.46c-.732 1.589-7.414 14.505-8.338 16.111zm40.072-65.248 12.771 7.3-18.762 18.761a218.537 218.537 0 0 0 5.991-26.059zm2.17-17.188a227.458 227.458 0 0 0 -2.4-57.955l28.8 25.917c-8.429 13.727-15.9 25.467-21.988 34.559zm-40.336-160.07-17.753-22.194a8 8 0 0 0 -6.247-3h-56a8 8 0 0 1 0-16h56a24.028 24.028 0 0 1 24 24zm-64 86.806h82.086c4.492 16.2 15.511 67.56-5.457 124.648l-68.629-41.177v-27.471a8 8 0 0 0 -4.923-7.385l-44.365-18.485 9.46-37.841 29.888 7.472a7.977 7.977 0 0 0 1.94.239zm-111.043-113.458 39.69 92.609a8 8 0 0 0 5.412 4.61l18.59 4.648-8.874 35.5-33.431-13.929-38.81-108.671a8 8 0 0 0 -5-4.9l-19.834-6.609-1.483-5.933-2.971-11.867h24.654a23.969 23.969 0 0 1 22.057 14.542zm-176.957-14.542h36.687l-18.344 18.343 11.314 11.314 29.656-29.657h54.441l6.246 24.985v27.7l-21.657 21.656 11.314 11.314 14.843-14.845 10.53 31.591-29.277 36.599a8 8 0 0 0 -1.514 6.938l6.961 27.847-77.119 84.834a8 8 0 0 0 -2.081 5.381v24h16v-20.907l77.919-85.712a8 8 0 0 0 1.842-7.321l-7.039-28.16 29.525-36.9a8 8 0 0 0 1.342-7.528l-15.589-46.772v-19.6l9.776 3.259 38.69 108.333a8 8 0 0 0 4.457 4.693l91.077 37.948v37.724l-66.85-33.421a67.838 67.838 0 0 0 -88.53 25.778l-41.957 69.932-45.193 15.065a8 8 0 0 0 -5.47 7.589v20.687l-13.657 13.656 11.314 11.314 11.362-11.363 14.981 9.987v40.406l-21.657 21.656 11.314 11.314 18.343-18.344 8 8v28.687h-72zm255.493 298.373 7.775-1.944 54.067 24.029a115.955 115.955 0 0 1 -16.377 10.388zm-76.181-57.655a8 8 0 0 0 -9.333 2.014l-51.93 59.349-18.744-9.373 39.036-65.063a51.852 51.852 0 0 1 67.651-19.7l.664.332-14 38.51zm-131.312 77.048 39.386-13.129 20.931 10.463-8.6 12.9h-51.717zm173.062-102.286 16.52 8.259-4.153 41.58-26.162-11.891zm27.749 56.829 4.089-40.909 8.855 4.427-4.484 40.331zm-101.755 175.691h-59.056v-10.234l38.553-12.851 23.306 17.479zm59.814-95.92a8 8 0 0 0 -5.73 3.8l-43.44 72.398-20.066-15.05 30.368-78.955a32.01 32.01 0 0 1 18.768-18.522l-5.548-15.007a48.014 48.014 0 0 0 -28.153 27.784l-31.181 81.072-33.888 11.3v-4.9a8 8 0 0 0 -2.343-5.657l-13.657-13.656v-44.687a8 8 0 0 0 -3.563-6.656l-2.015-1.344h37.578a8 8 0 0 0 6.656-3.562l15.709-23.564 51.735-59.129 15.8 7.185h.006l45.909 20.87-36.6 9.153a8 8 0 0 0 -5.412 10.912l19.197 44.77zm45.928-6.559-19.4 2.772-17.185-40.1 18.889-4.722 48.647 34.746a165.181 165.181 0 0 1 -30.949 7.304zm77.811-36.673-58.009-25.781 4.4-39.621 6.5 3.25 16.453 14.4 41.133 35.991a148.578 148.578 0 0 1 -10.477 11.761zm69.391 51.152a8.009 8.009 0 0 1 -8 8h-24a8.009 8.009 0 0 1 -8-8v-53.394l40 11.429zm44.359-124.822a47.618 47.618 0 0 1 -10.376 15.522l-31.64 31.64a8 8 0 0 0 -2.343 5.66v13.394l-24-6.857v-19.224l45.657-45.656a8 8 0 0 0 -1.688-12.6l-9.294-5.31c5.716-8.565 12.461-19.153 20.152-31.635l1.332 1.2a47.843 47.843 0 0 1 12.2 53.871z" data-original="#000000" class="" style="fill:#000000"/><path d="m101.657 165.657a8 8 0 0 0 1-10.095l-16-24-13.312 8.876 12.361 18.542-35.363 35.363 11.314 11.314z" data-original="#000000" class="" style="fill:#000000"/><path d="m57.373 224h45.255v16h-45.255z" transform="matrix(.707 -.707 .707 .707 -140.617 124.52)" data-original="#000000" class="" style="fill:#000000"/><path d="m60.686 88h22.627v16h-22.627z" transform="matrix(.707 -.707 .707 .707 -46.794 79.029)" data-original="#000000" class="" style="fill:#000000"/></g></g> </svg>
