<svg height="512pt" viewBox="-7 0 512 512.0004" width="512pt" xmlns="http://www.w3.org/2000/svg"><path d="m25.480469 512h59.464843c14.046876 0 25.480469-11.429688 25.480469-25.480469v-215.578125c0-4.140625-3.359375-7.5-7.5-7.5-4.144531 0-7.503906 3.359375-7.503906 7.5v215.578125c0 5.777344-4.699219 10.480469-10.476563 10.480469h-59.464843c-5.777344 0-10.480469-4.703125-10.480469-10.480469v-315.410156c0-5.777344 4.703125-10.476563 10.480469-10.476563h59.464843c5.777344 0 10.476563 4.699219 10.476563 10.476563v69.828125c0 4.144531 3.359375 7.503906 7.503906 7.503906 4.140625 0 7.5-3.359375 7.5-7.503906v-69.828125c0-14.046875-11.433593-25.480469-25.480469-25.480469h-59.464843c-14.050781 0-25.480469 11.433594-25.480469 25.480469v315.410156c0 14.050781 11.429688 25.480469 25.480469 25.480469zm0 0"/><path d="m154.875 206.769531c-14.050781 0-25.480469 11.429688-25.480469 25.480469v254.269531c0 14.050781 11.429688 25.480469 25.480469 25.480469h59.464844c14.046875 0 25.480468-11.429688 25.480468-25.480469v-254.269531c0-14.050781-11.433593-25.480469-25.480468-25.480469zm69.941406 25.480469v254.269531c0 5.78125-4.699218 10.480469-10.476562 10.480469h-59.464844c-5.777344 0-10.480469-4.699219-10.480469-10.480469v-254.269531c0-5.777344 4.703125-10.480469 10.480469-10.480469h59.464844c5.777344 0 10.476562 4.703125 10.476562 10.480469zm0 0"/><path d="m361.714844 425.449219c4.140625 0 7.5-3.355469 7.5-7.5v-124.5625c0-14.046875-11.429688-25.476563-25.480469-25.476563h-59.464844c-14.050781 0-25.480469 11.429688-25.480469 25.476563v193.132812c0 14.050781 11.429688 25.480469 25.480469 25.480469h59.464844c14.050781 0 25.480469-11.429688 25.480469-25.480469v-38.566406c0-4.144531-3.359375-7.5-7.5-7.5-4.144532 0-7.5 3.355469-7.5 7.5v38.566406c0 5.78125-4.703125 10.480469-10.480469 10.480469h-59.464844c-5.777343 0-10.480469-4.699219-10.480469-10.480469v-193.132812c0-5.777344 4.703126-10.476563 10.480469-10.476563h59.464844c5.777344 0 10.480469 4.699219 10.480469 10.476563v124.5625c0 4.144531 3.355468 7.5 7.5 7.5zm0 0"/><path d="m473.128906 329.046875h-59.464844c-14.050781 0-25.480468 11.429687-25.480468 25.480469v131.992187c0 14.050781 11.429687 25.480469 25.480468 25.480469h59.464844c14.050782 0 25.480469-11.429688 25.480469-25.480469v-131.992187c0-14.050782-11.429687-25.480469-25.480469-25.480469zm10.480469 157.472656c0 5.78125-4.703125 10.480469-10.480469 10.480469h-59.464844c-5.777343 0-10.476562-4.699219-10.476562-10.480469v-131.992187c0-5.777344 4.699219-10.480469 10.476562-10.480469h59.464844c5.777344 0 10.480469 4.703125 10.480469 10.480469zm0 0"/><path d="m68.886719 0c-6.898438.046875-13.503907 4.175781-16.246094 10.875 0 0-8.734375 21.328125-8.738281 21.335938-3.628906 8.867187.753906 19.269531 9.59375 22.890624l327.21875 133.976563s-21.347656 8.96875-21.371094 8.976563c-8.4375 3.546874-12.53125 13.558593-8.984375 22.003906 0 0 9.5 22.605468 9.507813 22.628906 3.535156 8.417969 13.597656 12.515625 22.003906 8.984375 0 0 85.957031-36.113281 86.003906-36.132813 14.605469-6.132812 21.6875-23.453124 15.546875-38.070312 0 0-36.09375-85.914062-36.132813-86.007812-3.542968-8.425782-13.585937-12.519532-22.003906-8.980469l-22.632812 9.507812c-8.539063 3.589844-12.570313 13.460938-8.980469 22l8.902344 21.195313s-327.003907-133.886719-327.039063-133.902344c-2.167968-.886719-4.425781-1.296875-6.648437-1.28125zm344.785156 155.9375c6.058594 2.480469 12.289063-3.808594 9.753906-9.847656l-15.925781-37.910156c-.386719-.917969.046875-1.976563.964844-2.363282l22.628906-9.507812c.226562-.097656.457031-.144532.695312-.144532.554688 0 1.324219.292969 1.664063 1.109376 0 0 36.121094 85.972656 36.136719 86.003906 2.96875 7.074218-.476563 15.472656-7.527344 18.433594l-86.003906 36.132812c-.914063.382812-1.980469-.050781-2.363282-.964844 0 0-9.507812-22.632812-9.511718-22.632812-.382813-.914063.0625-1.980469.964844-2.359375 0 0 37.992187-15.960938 38.042968-15.984375 6.019532-2.527344 5.972656-11.382813-.0625-13.855469 0 0-343.953125-140.824219-343.953125-140.824219-1.296875-.53125-1.921875-2.035156-1.394531-3.328125l8.738281-21.335937c.527344-1.292969 2.035157-1.921875 3.324219-1.394532.003906 0 343.550781 140.660157 343.828125 140.773438zm0 0"/></svg>