<?xml version="1.0"?>
<svg xmlns="http://www.w3.org/2000/svg" id="Layer_1" enable-background="new 0 0 128 128" height="512px" viewBox="0 0 128 128" width="512px" class=""><g><g><path d="m125.61 16.753c-.245-.188-.562-.254-.866-.174l-39.077 10.325-39.078-10.325c-.036-.009-.071.002-.107-.003-.051-.008-.096-.03-.149-.03h-39.333c-.553 0-1 .448-1 1v86.516c0 .552.447 1 1 1h39.203l39.208 10.359c.085.022.171.033.256.033s.171-.011.256-.033l39.333-10.393c.438-.116.744-.513.744-.967v-86.515c0-.31-.144-.603-.39-.793z" fill="#e6e7e8" data-original="#E6E7E8" class=""/><g><path d="m3 13.546h39.333v86.516h-39.333z" fill="#6dc9f7" data-original="#6DC9F7" class="" style="fill:#2AB7C4" data-old_color="#6dc9f7"/><path d="m81.667 110.454-39.334-10.392v-86.516l39.334 10.392z" fill="#d4fbff" data-original="#D4FBFF" class="" style="fill:#1ABD99" data-old_color="#d4fbff"/><path d="m121 100.062-39.333 10.392v-86.516l39.333-10.392z" fill="#6dc9f7" data-original="#6DC9F7" class="" style="fill:#2AB7C4" data-old_color="#6dc9f7"/><path d="m118 14.338v86.516l3-.792v-86.516z" fill="#fff" data-original="#FFF" class=""/><g><circle cx="22.83" cy="35.289" fill="#0089ef" r="14" data-original="#0089EF" class="" style="fill:#FFFFFF" data-old_color="#0089ef"/><path d="m26.611 37.958c-1.029.845-2.346 1.353-3.781 1.353s-2.752-.508-3.781-1.353c-2.558.088-4.609 2.176-4.609 4.756v3.783c2.338 1.753 5.243 2.792 8.39 2.792s6.052-1.039 8.39-2.792v-3.783c0-2.58-2.05-4.668-4.609-4.756z" fill="#fa759e" data-original="#FA759E" class="" style="fill:#FFFFFF" data-old_color="#fa759e"/><circle cx="22.83" cy="33.349" fill="#ffd7e5" r="5.962" data-original="#FFD7E5" class="active-path" style="fill:#FFD7E5" data-old_color="#ffd7e5"/></g><circle cx="107.688" cy="51.472" fill="#fa759e" r="6.125" data-original="#FA759E" class="" style="fill:#FFFFFF" data-old_color="#fa759e"/><circle cx="62.938" cy="82.472" fill="#fa759e" r="6.125" data-original="#FA759E" class="" style="fill:#FFFFFF" data-old_color="#fa759e"/><g fill="#3a2c60"><path d="m21.62 51.195c-.043.551.368 1.032.918 1.076.027.002.054.003.08.003.517 0 .955-.397.996-.921.035-.439.071-.811.104-1.109 7.857-.464 14.112-6.984 14.112-14.955 0-8.271-6.729-15-15-15s-15 6.729-15 15c0 7.892 6.13 14.366 13.878 14.943-.029.276-.059.595-.088.963zm1.21-12.884c-2.736 0-4.962-2.226-4.962-4.962s2.226-4.962 4.962-4.962 4.962 2.226 4.962 4.962-2.226 4.962-4.962 4.962zm-4.068.676c1.146.829 2.549 1.324 4.068 1.324s2.922-.495 4.068-1.324c1.866.226 3.322 1.801 3.322 3.727v3.257c-2.1 1.458-4.645 2.318-7.39 2.318s-5.29-.86-7.391-2.318v-3.256c0-1.927 1.456-3.502 3.323-3.728zm-8.932-3.698c0-7.168 5.832-13 13-13s13 5.832 13 13c0 3.477-1.38 6.631-3.61 8.966v-1.541c0-2.449-1.536-4.539-3.693-5.376.794-1.131 1.265-2.505 1.265-3.989 0-3.839-3.123-6.962-6.962-6.962s-6.962 3.123-6.962 6.962c0 1.484.471 2.858 1.265 3.989-2.157.836-3.694 2.927-3.694 5.376v1.54c-2.23-2.335-3.609-5.489-3.609-8.965z" data-original="#3A2C60" class="" style="fill:#3A2C60"/><path d="m49.338 83.277c-1.307-.071-2.617-.216-3.895-.433-.546-.096-1.061.274-1.153.819-.092.544.274 1.061.819 1.153 1.352.229 2.738.383 4.121.458.018.001.036.001.055.001.527 0 .969-.413.997-.946.03-.55-.392-1.022-.944-1.052z" data-original="#3A2C60" class="" style="fill:#3A2C60"/><path d="m34.514 78.829c-1.129-.699-2.177-1.469-3.115-2.291-.414-.364-1.047-.322-1.411.094-.363.416-.321 1.047.095 1.411 1.021.894 2.157 1.73 3.379 2.486.164.102.346.15.525.15.335 0 .662-.168.852-.474.289-.47.144-1.086-.325-1.376z" data-original="#3A2C60" class="" style="fill:#3A2C60"/><path d="m22.778 60.328c.55-.053.953-.542.899-1.091-.123-1.277-.19-2.604-.201-3.942-.004-.553-.411-.974-1.008-.992-.553.004-.996.456-.992 1.008.011 1.397.082 2.782.211 4.118.05.518.484.904.994.904.033-.001.065-.002.097-.005z" data-original="#3A2C60" class="" style="fill:#3A2C60"/><path d="m26.73 70.49c-.251-.492-.854-.686-1.346-.436-.492.251-.687.854-.436 1.346.656 1.283 1.41 2.482 2.241 3.564.197.257.493.391.794.391.212 0 .427-.067.608-.207.438-.336.521-.964.184-1.402-.755-.985-1.444-2.081-2.045-3.256z" data-original="#3A2C60" class="" style="fill:#3A2C60"/><path d="m25.241 66.909c-.396-1.191-.73-2.463-.995-3.782-.109-.542-.637-.892-1.177-.784-.542.108-.893.636-.784 1.177.28 1.398.637 2.75 1.058 4.019.14.419.53.685.949.685.104 0 .211-.017.315-.051.525-.174.808-.74.634-1.264z" data-original="#3A2C60" class="" style="fill:#3A2C60"/><path d="m88.375 59.753c-.966.843-1.942 1.767-2.983 2.825-.388.393-.384 1.026.01 1.414.195.192.448.288.702.288.259 0 .517-.1.712-.298 1.007-1.021 1.947-1.912 2.874-2.721.416-.363.459-.995.096-1.411-.364-.418-.996-.46-1.411-.097z" data-original="#3A2C60" class="" style="fill:#3A2C60"/><path d="m95.188 55.039c-1.197.614-2.396 1.338-3.563 2.155-.452.316-.562.94-.246 1.393.194.278.505.427.82.427.197 0 .397-.059.572-.181 1.093-.764 2.213-1.442 3.329-2.014.491-.252.686-.855.434-1.346s-.855-.686-1.346-.434z" data-original="#3A2C60" class="" style="fill:#3A2C60"/><path d="m77.208 71.529c-1.013 1.083-1.926 2.008-2.789 2.828-.4.38-.417 1.013-.037 1.414.197.207.461.312.726.312.247 0 .495-.091.688-.274.893-.847 1.832-1.8 2.873-2.913.377-.403.356-1.036-.048-1.414-.402-.377-1.035-.357-1.413.047z" data-original="#3A2C60" class="" style="fill:#3A2C60"/><path d="m71.446 76.932c-.827.644-1.664 1.211-2.498 1.731-1.265-1.989-3.484-3.316-6.011-3.316-3.929 0-7.125 3.196-7.125 7.125 0 .186.014.368.028.55-.861.112-1.724.205-2.582.253-.551.031-.974.502-.942 1.054.029.532.471.944.997.944.019 0 .038 0 .057-.001.966-.054 1.938-.16 2.907-.29 1.018 2.692 3.615 4.615 6.66 4.615 3.929 0 7.125-3.196 7.125-7.125 0-.684-.102-1.344-.283-1.971.968-.591 1.939-1.246 2.896-1.991.436-.339.514-.968.175-1.404-.34-.436-.969-.514-1.404-.174zm-8.509 10.665c-2.826 0-5.125-2.299-5.125-5.125s2.299-5.125 5.125-5.125 5.125 2.299 5.125 5.125-2.298 5.125-5.125 5.125z" data-original="#3A2C60" class="" style="fill:#3A2C60"/><path d="m99.095 53.402c-.524.173-.81.738-.637 1.263.139.421.53.688.95.688.104 0 .209-.017.313-.051.552-.182 1.117-.34 1.68-.483 1.201 2.245 3.567 3.778 6.286 3.778 3.929 0 7.125-3.196 7.125-7.125s-3.196-7.125-7.125-7.125-7.125 3.196-7.125 7.125c0 .502.054.992.153 1.465-.543.141-1.087.29-1.62.465zm8.592-7.055c2.826 0 5.125 2.299 5.125 5.125s-2.299 5.125-5.125 5.125-5.125-2.299-5.125-5.125 2.299-5.125 5.125-5.125z" data-original="#3A2C60" class="" style="fill:#3A2C60"/><path d="m121.61 12.753c-.245-.188-.561-.253-.866-.174l-7.318 1.934c-.533.141-.852.688-.711 1.222s.688.85 1.223.711l6.062-1.602v84.447l-37.333 9.864v-40.688c.47-.526.938-1.054 1.413-1.577.371-.409.341-1.041-.067-1.413-.388-.35-.969-.331-1.346.018v-40.786l15.938-4.212c.533-.141.852-.688.711-1.222s-.689-.85-1.223-.711l-16.427 4.341-39.077-10.326c-.084-.022-.17-.033-.256-.033h-39.333c-.553 0-1 .448-1 1v86.516c0 .552.447 1 1 1h39.203l39.208 10.359c.084.022.17.033.256.033s.172-.011.256-.033l39.333-10.393c.438-.116.744-.513.744-.967v-86.515c0-.31-.144-.603-.39-.793zm-78.277 2.091 37.334 9.864v42.994c-.07.078-.14.156-.21.234l-.555.624c-.368.413-.332 1.044.081 1.412.19.17.428.253.665.253.006 0 .012-.004.019-.004v38.934l-37.334-9.864zm-39.333-.298h37.333v67.323c-1.159-.353-2.295-.763-3.374-1.237-.509-.223-1.096.009-1.317.514-.222.506.009 1.096.515 1.318 1.249.548 2.564 1.026 3.908 1.421.09.026.18.038.269.039v15.138h-37.334z" data-original="#3A2C60" class="" style="fill:#3A2C60"/><path d="m102.396 19.461c.085 0 .171-.011.257-.033l7.247-1.915c.533-.141.853-.688.711-1.222-.141-.535-.688-.851-1.223-.711l-7.247 1.915c-.533.141-.853.688-.711 1.222.119.447.524.744.966.744z" data-original="#3A2C60" class="" style="fill:#3A2C60"/></g></g></g></g> </svg>
