<?xml version="1.0"?>
<svg xmlns="http://www.w3.org/2000/svg" xmlns:xlink="http://www.w3.org/1999/xlink" version="1.1" id="Capa_1" x="0px" y="0px" viewBox="0 0 512 512" style="enable-background:new 0 0 512 512;" xml:space="preserve" width="512px" height="512px" class=""><g><path style="fill:#000000" d="M134.754,512c-12.67,0-22.941-10.272-22.941-22.941l0.001-183.572  c0-12.67,10.271-22.741,22.94-22.741s22.941,10.071,22.941,22.741v183.572C157.695,501.73,147.424,512,134.754,512z" data-original="#42464A" class="" data-old_color="#42464A"/><path style="fill:#000000" d="M79.375,511.784c-12.67,0-22.941-10.272-22.941-22.941V305.472c0-12.67,10.271-22.941,22.941-22.941  s22.941,10.271,22.941,22.941v183.371C102.316,501.513,92.045,511.784,79.375,511.784z" data-original="#50555A" class="" data-old_color="#50555A"/><path style="fill:#1ABD99" d="M204.319,166.976c-0.125-24.821-20.736-45.015-45.947-45.015c-17.281,0-75.293,0-102.634,0  c-25.21,0-45.822,20.193-45.947,45.015c0,0.032,0,0.064,0,0.096v140.45c0,10.558,8.56,19.118,19.118,19.118  s19.118-8.56,19.118-19.118V167.135c0.04-3.636,3.706-6.939,7.711-6.939h0.694v145.291h101.263V160.197h0.678  c4.005,0,7.671,3.303,7.711,6.939v140.387c0,10.558,8.56,19.118,19.118,19.118c10.558,0,19.118-8.56,19.118-19.118V167.071  C204.319,167.04,204.319,167.008,204.319,166.976z" data-original="#373C41" class="" data-old_color="#373C41"/><path style="fill:#2AB7C4" d="M204.319,166.976c-0.125-24.821-20.736-45.015-45.947-45.015c-9.471,0-41.694,0-51.305,0  l-0.012,76.553l0.012,106.974h50.628V160.197h0.678c4.005,0,7.671,3.303,7.711,6.939v140.387c0,10.558,8.56,19.118,19.118,19.118  c10.558,0,19.118-8.56,19.118-19.118V167.071C204.319,167.04,204.319,167.008,204.319,166.976z" data-original="#292D30" class="" data-old_color="#292D30"/><circle style="fill:#BA6746;" cx="107.052" cy="70.226" r="39.622" data-original="#BA6746" class=""/><g>
	<path style="fill:#FFFFFF;" d="M9.792,297.662v9.861c0,10.558,8.56,19.118,19.118,19.118s19.118-8.56,19.118-19.118v-9.861H9.792z" data-original="#FFFFFF" class=""/>
	<path style="fill:#FFFFFF;" d="M166.084,297.662v9.861c0,10.558,8.56,19.118,19.118,19.118c10.558,0,19.118-8.56,19.118-19.118   v-9.861H166.084z" data-original="#FFFFFF" class=""/>
</g><g>
	<path style="fill:#BA6746;" d="M9.792,307.03v0.492c0,10.558,8.56,19.118,19.118,19.118s19.118-8.56,19.118-19.118v-0.492H9.792z" data-original="#BA6746" class=""/>
	<path style="fill:#BA6746;" d="M166.084,307.03v0.492c0,10.558,8.56,19.118,19.118,19.118c10.558,0,19.118-8.56,19.118-19.118   v-0.492H166.084z" data-original="#BA6746" class=""/>
</g><polygon style="fill:#FFFFFF;" points="77.882,121.961 107.055,198.514 136.229,121.961 " data-original="#FFFFFF" class=""/><path style="fill:#2AB7C4" d="M119.739,148.136l-6.512-11.845l5.616-10.216c1.016-1.847-0.323-4.115-2.433-4.115H97.688  c-2.108,0-3.451,2.266-2.433,4.115l5.635,10.25l-6.494,11.811c-0.894,1.628-1.186,3.518-0.822,5.34l4.057,20.307l9.424,24.73  l9.458-24.818l4.047-20.217C120.925,151.656,120.635,149.764,119.739,148.136z" data-original="#78BEFF" class="" data-old_color="#78BEFF"/><path style="fill:#000000" d="M119.739,148.136l-6.512-11.845l5.616-10.216c1.016-1.847-0.323-4.115-2.433-4.115h-9.355v76.553l0,0  l9.458-24.818l4.047-20.217C120.925,151.656,120.635,149.764,119.739,148.136z" data-original="#5AAAE5" class="" data-old_color="#5AAAE5"/><rect x="120.814" y="180.906" style="fill:#1ABD99" width="25.254" height="7.789" data-original="#373C41" class="" data-old_color="#373C41"/><path style="fill:#1ABD99" d="M367.872,512c-12.732,0-23.052-10.32-23.052-23.052v-184.26c0-12.732,10.321-23.052,23.052-23.052  s23.052,10.32,23.052,23.052v184.261C390.926,501.68,380.604,512,367.872,512z" data-original="#343E6B" class="" data-old_color="#343E6B"/><path style="fill:#2AB7C4" d="M312.223,512c-12.732,0-23.052-10.32-23.052-23.052v-184.26c0-12.732,10.321-23.052,23.052-23.052  s23.052,10.32,23.052,23.052v184.261C335.276,501.68,324.955,512,312.223,512z" data-original="#414B82" class="" data-old_color="#414B82"/><path style="fill:#000000" d="M495.326,4.477c-8.137-6.809-20.253-5.73-27.061,2.406L357.062,139.798h-34.029L211.832,6.884  c-6.808-8.138-18.924-9.214-27.061-2.406c-8.137,6.809-9.215,18.924-2.406,27.061l106.806,127.661v145.488h101.755V159.199  L497.732,31.538C504.54,23.401,503.462,11.286,495.326,4.477z" data-original="#252D5C" class="" data-old_color="#252D5C"/><path style="fill:#000000" d="M495.326,4.477c-8.137-6.809-20.253-5.73-27.061,2.406L357.062,139.798h-17.017v164.889h50.881  V159.199L497.732,31.538C504.54,23.401,503.462,11.286,495.326,4.477z" data-original="#1B224A" class="" data-old_color="#1B224A"/><path style="fill:#FFB69E;" d="M491.259,39.275l6.473-7.736c6.809-8.138,5.73-20.253-2.406-27.061  c-8.137-6.808-20.253-5.73-27.061,2.406l-6.237,7.455L491.259,39.275z" data-original="#FFB69E"/><polygon style="fill:#FFFFFF;" points="491.259,39.275 497.732,31.538 468.264,6.884 462.027,14.339 " data-original="#FFFFFF" class=""/><path style="fill:#FFB69E;" d="M188.837,39.275l29.582-24.517l-6.588-7.874c-6.808-8.138-18.924-9.214-27.061-2.406  c-8.137,6.808-9.215,18.924-2.406,27.061L188.837,39.275z" data-original="#FFB69E"/><polygon style="fill:#FFFFFF;" points="188.837,39.275 218.419,14.758 211.832,6.884 182.364,31.538 " data-original="#FFFFFF" class=""/><circle style="fill:#FFB69E;" cx="340.045" cy="78.97" r="39.814" data-original="#FFB69E"/><polygon style="fill:#FFFFFF;" points="316.791,153.604 340.045,214.63 349.332,190.27 363.249,153.604 357.062,139.798   323.034,139.798 " data-original="#FFFFFF" class=""/><path style="fill:#1ABD99" d="M352.447,165.273l-6.335-11.522l5.46-9.93c0.992-1.806-0.315-4.023-2.379-4.023h-18.301  c-2.061,0-3.373,2.215-2.38,4.023l5.478,9.963l-6.317,11.49c-0.874,1.591-1.159,3.439-0.803,5.22l3.897,19.78l9.279,24.356  l9.287-24.361l3.918-19.774C353.607,168.713,353.322,166.864,352.447,165.273z" data-original="#CD2D23" class="" data-old_color="#CD2D23"/><path style="fill:#2AB7C4" d="M352.447,165.273l-6.335-11.522l5.46-9.93c0.992-1.806-0.315-4.023-2.379-4.023h-9.148v74.817v0.016  l9.287-24.361l3.918-19.774C353.607,168.713,353.322,166.864,352.447,165.273z" data-original="#B71A16" class="active-path" data-old_color="#B71A16"/><rect x="355.245" y="193.138" style="fill:#000000" width="25.254" height="7.789" data-original="#252D5C" class="" data-old_color="#252D5C"/></g> </svg>
